<svg xmlns="http://www.w3.org/2000/svg" xmlns:xlink="http://www.w3.org/1999/xlink"><symbol viewBox="0 0 32 32" id="abta" xmlns="http://www.w3.org/2000/svg"><path d="M14.52 31.772v-.656c0-10.086 0-20.172-.013-30.245 0-.522.067-.75.697-.817 2.063-.214 4.032.268 5.947.871 2.518.804 4.742 2.197 6.51 4.166 1.808 2.009 3.175 4.286 3.804 6.992.362 1.567.576 3.134.482 4.728-.188 3.308-1.192 6.336-3.295 8.948-1.406 1.741-3.027 3.228-4.996 4.3A15.152 15.152 0 0118.7 31.72c-1.353.201-2.706.469-4.179.054zM17.815 17.4v3.027c1.152 0 2.25.013 3.362-.013.147 0 .375-.214.402-.348.134-.71.241-1.42.281-2.143.013-.161-.268-.496-.429-.496-1.192-.04-2.384-.027-3.617-.027zm3.657-5.854h-3.657v2.987c1.219 0 2.398.027 3.576-.027.174-.013.482-.362.455-.522-.067-.804-.228-1.607-.375-2.438zm3.603 5.894a237.427 237.427 0 01-.415 3c1.058 0 2.036.013 3.014-.013.147 0 .415-.107.442-.214.255-.897.455-1.795.697-2.773h-3.737zm3.71-2.933c-.228-.964-.429-1.875-.656-2.773-.027-.094-.201-.201-.308-.201-1.058-.013-2.116-.013-3.188-.013.161 1.058.308 1.996.455 2.987h3.697zm-10.93 8.961v5.09c1.206-1.634 2.13-3.228 2.746-5.09h-2.746zm2.733-14.976c-.737-1.795-1.5-3.429-2.759-4.969v4.969h2.759zm5.84 14.935c-.764 0-1.313.054-1.862-.013-.683-.094-.938.281-1.165.804-.388.857-.817 1.688-1.232 2.532l-.201.442c1.795-.817 3.242-1.996 4.46-3.764zM21.9 4.661c.63 1.313 1.192 2.491 1.768 3.67.04.094.201.188.308.188.75.013 1.5.013 2.424.013-1.299-1.661-2.679-2.907-4.501-3.871zM13.087 14.56v2.947H.201c-.295-.938-.241-1.929-.027-2.947h12.913zM13.06.388v9.229L6.631 3.188C8.412 1.835 10.596.857 13.06.388zM13.046 22.115v9.376c-1.982-.107-5.626-1.875-6.51-2.866a1536.77 1536.77 0 006.51-6.51zM.496 12.926C.429 11.493 2.291 7.407 3.403 6.47l6.456 6.456H.496zM9.832 19.007l-6.496 6.496C1.849 23.614.952 21.431.403 19.007h9.43zM13.046 12.939c-.804.188-1.406.013-2.023-.616-2.237-2.331-4.554-4.581-6.885-6.925.442-.362.857-.71 1.353-1.112.04.04.214.201.375.362 2.21 2.21 4.393 4.42 6.63 6.604.496.496.75.978.549 1.688zM4.206 26.455c2.224-2.224 4.527-4.46 6.751-6.764.603-.63 1.219-.897 2.09-.683.134.576.067 1.058-.442 1.554-2.424 2.371-4.795 4.782-7.193 7.166-.388-.415-.763-.804-1.206-1.273z"/></symbol><symbol viewBox="0 0 32 32" id="airplane" xmlns="http://www.w3.org/2000/svg"><path d="M24 19.999l-5.713-5.713L32 4l-4-4-17.141 6.858-5.397-5.397C3.906-.095 1.734-.467.634.633s-.727 3.273.828 4.828l5.396 5.396L0 28l4 4 10.287-13.715L20 23.998v7.999h4l2-6 6-2v-4h-7.999z"/></symbol><symbol viewBox="0 0 21 32" id="angle-down" xmlns="http://www.w3.org/2000/svg"><path d="M19.197 13.143a.616.616 0 01-.178.41l-8.321 8.321c-.107.107-.267.178-.41.178s-.304-.072-.41-.178l-8.321-8.321c-.107-.107-.178-.267-.178-.41s.072-.304.178-.41l.893-.893a.58.58 0 01.41-.178c.143 0 .304.072.41.178l7.018 7.018 7.018-7.018c.107-.107.267-.178.41-.178s.304.072.41.178l.893.893a.613.613 0 01.178.41z"/></symbol><symbol viewBox="0 0 13 32" id="angle-left" xmlns="http://www.w3.org/2000/svg"><path d="M11.197 9.714a.616.616 0 01-.178.41l-7.018 7.018 7.018 7.018c.107.107.178.267.178.41s-.072.304-.178.41l-.893.893c-.107.107-.267.178-.41.178s-.304-.072-.41-.178L.985 17.552c-.107-.107-.178-.267-.178-.41s.072-.304.178-.41l8.321-8.321c.107-.107.267-.178.41-.178s.304.072.41.178l.893.893a.58.58 0 01.178.41z"/></symbol><symbol viewBox="0 0 10 32" id="angle-right" xmlns="http://www.w3.org/2000/svg"><path d="M10.625 17.143a.616.616 0 01-.178.41l-8.321 8.321c-.107.107-.267.178-.41.178s-.304-.072-.41-.178l-.893-.893a.58.58 0 01-.178-.41c0-.143.072-.304.178-.41l7.018-7.018-7.018-7.018c-.107-.107-.178-.267-.178-.41s.072-.304.178-.41l.893-.893c.107-.107.267-.178.41-.178s.304.072.41.178l8.321 8.321a.613.613 0 01.178.41z"/></symbol><symbol viewBox="0 0 21 32" id="angle-up" xmlns="http://www.w3.org/2000/svg"><path d="M19.197 21.143a.616.616 0 01-.178.41l-.893.893a.58.58 0 01-.41.178.616.616 0 01-.41-.178l-7.018-7.018-7.018 7.018c-.107.107-.267.178-.41.178s-.304-.072-.41-.178l-.893-.893c-.107-.107-.178-.267-.178-.41s.072-.304.178-.41l8.321-8.321c.107-.107.267-.178.41-.178s.304.072.41.178l8.321 8.321a.613.613 0 01.178.41z"/></symbol><symbol viewBox="0 0 32 32" id="backward" xmlns="http://www.w3.org/2000/svg"><path d="M18 5v10L28 5v22L18 17v10L7 16z"/></symbol><symbol viewBox="0 0 32 32" id="bed" xmlns="http://www.w3.org/2000/svg"><path d="M16 8.145c0 2.892-2.388 5.236-5.333 5.236s-5.333-2.344-5.333-5.236 2.388-5.236 5.333-5.236S16 5.253 16 8.145zM0 15.127h27.555c2.455 0 4.445 1.954 4.445 4.364v4.364H0v-8.727z"/><path d="M0 2.909h3.556v26.182H0V2.909zM28.445 23.855H32v5.236h-3.555v-5.236z"/></symbol><symbol viewBox="0 0 32 32" id="bed1" xmlns="http://www.w3.org/2000/svg"><path d="M25.312 9.312c2.937 0 5.375 2.437 5.375 5.375v12h-2.688v-4h-24v4H1.311v-20h2.688v12h10.688V9.312h10.625zm-16 8c-2.188 0-4-1.812-4-4s1.812-4 4-4 4 1.812 4 4-1.812 4-4 4z"/></symbol><symbol viewBox="0 0 32 32" id="blocked" xmlns="http://www.w3.org/2000/svg"><path d="M27.314 4.686C24.292 1.664 20.274 0 16 0S7.708 1.664 4.686 4.686C1.664 7.708 0 11.726 0 16s1.664 8.292 4.686 11.314C7.708 30.336 11.726 32 16 32s8.292-1.664 11.314-4.686C30.336 24.292 32 20.274 32 16s-1.664-8.292-4.686-11.314zM28 16c0 2.588-.824 4.987-2.222 6.949L9.051 6.222A11.93 11.93 0 0116 4c6.617 0 12 5.383 12 12zM4 16c0-2.588.824-4.987 2.222-6.949l16.727 16.727A11.93 11.93 0 0116 28C9.383 28 4 22.617 4 16z"/></symbol><symbol viewBox="0 0 36 32" id="books" xmlns="http://www.w3.org/2000/svg"><path d="M7 4H1c-.55 0-1 .45-1 1v22c0 .55.45 1 1 1h6c.55 0 1-.45 1-1V5c0-.55-.45-1-1-1zm-1 6H2V8h4v2zM17 4h-6c-.55 0-1 .45-1 1v22c0 .55.45 1 1 1h6c.55 0 1-.45 1-1V5c0-.55-.45-1-1-1zm-1 6h-4V8h4v2z"/><path d="M23.908 5.546l-5.358 2.7c-.492.248-.69.852-.444 1.342l9 17.86c.248.492.852.69 1.342.444l5.358-2.7c.492-.248.69-.852.444-1.342l-9-17.86a1.003 1.003 0 00-1.342-.444z"/><path d="M29 27a1 1 0 11-2 0 1 1 0 012 0z"/></symbol><symbol viewBox="0 0 32 32" id="bubble" xmlns="http://www.w3.org/2000/svg"><path d="M16 2c8.837 0 16 5.82 16 13s-7.163 13-16 13a19.66 19.66 0 01-2.495-.158C10.068 31.279 5.966 31.895 2 31.986v-.841C4.142 30.096 6 28.184 6 26c0-.305-.024-.604-.068-.897C2.313 22.72 0 19.079 0 15 0 7.82 7.163 2 16 2z"/></symbol><symbol viewBox="0 0 32 32" id="bus" xmlns="http://www.w3.org/2000/svg"><path d="M9.143 21.714q0-.946-.67-1.616t-1.616-.67-1.616.67-.67 1.616.67 1.616 1.616.67 1.616-.67.67-1.616zm18.286 0q0-.946-.67-1.616t-1.616-.67-1.616.67-.67 1.616.67 1.616 1.616.67 1.616-.67.67-1.616zm-.822-7.071l-1.286-6.857q-.089-.41-.402-.67t-.723-.259H7.803q-.41 0-.723.259t-.402.67l-1.286 6.857q-.089.536.25.946t.875.41h18.965q.536 0 .875-.41t.25-.946zM22.571 3.714q0-.358-.25-.607t-.607-.25H10.285q-.358 0-.607.25t-.25.607.25.607.607.25h11.429q.358 0 .607-.25t.25-.607zm7.143 12.947v10.768h-2.286v2.286q0 .946-.67 1.616t-1.616.67-1.616-.67-.67-1.616v-2.286H9.142v2.286q0 .946-.67 1.616t-1.616.67-1.616-.67-.67-1.616v-2.286H2.284V16.661q0-2 .447-3.982L4.57 4.572q.161-1.393 1.741-2.447t4.107-1.59 5.581-.536 5.581.536 4.107 1.59 1.741 2.447l1.875 8.107q.41 1.822.41 3.982z"/></symbol><symbol viewBox="0 0 29 32" id="calendar" xmlns="http://www.w3.org/2000/svg"><path d="M6.465 14.4h8.081v8H6.465v-8zm19.394 14.4H3.233V11.2h22.626v17.6zm0-25.6h-1.616V0h-3.232v3.2H8.082V0H4.85v3.2H3.234C1.44 3.2.002 4.64.002 6.4v22.4c0 .849.341 1.663.947 2.263S2.377 32 3.235 32h22.626c.857 0 1.679-.337 2.286-.937s.947-1.414.947-2.263V6.4c0-.849-.34-1.663-.947-2.263S26.719 3.2 25.861 3.2z"/></symbol><symbol viewBox="0 0 32 32" id="camera" xmlns="http://www.w3.org/2000/svg"><path d="M3.2 4.687H8l3.2-3.232h9.6L24 4.687h4.8c.849 0 1.663.341 2.263.947S32 7.062 32 7.92v19.394c0 .857-.337 1.679-.937 2.286s-1.414.947-2.263.947H3.2c-.849 0-1.663-.34-2.263-.947S0 28.172 0 27.314V7.92c0-.857.337-1.679.937-2.286s1.414-.947 2.263-.947zM16 9.535c-2.122 0-4.157.851-5.657 2.367S8 15.473 8 17.616c0 2.143.843 4.199 2.343 5.714s3.535 2.367 5.657 2.367 4.157-.851 5.657-2.367S24 19.759 24 17.616s-.843-4.199-2.343-5.714A7.961 7.961 0 0016 9.535zm0 3.233c1.273 0 2.494.511 3.394 1.42s1.406 2.143 1.406 3.428c0 1.286-.506 2.519-1.406 3.428s-2.121 1.42-3.394 1.42-2.494-.511-3.394-1.42c-.9-.909-1.406-2.142-1.406-3.428s.506-2.519 1.406-3.428 2.121-1.42 3.394-1.42z"/></symbol><symbol viewBox="0 0 32 32" id="camera-add" xmlns="http://www.w3.org/2000/svg"><path d="M4.174 5.61V1.454h2.783V5.61h4.174v2.771H6.957v4.156H4.174V8.381H0V5.61h4.174zm4.174 8.312V9.766h4.174V5.61h9.739l2.546 2.771h4.41A2.786 2.786 0 0132 11.152v16.623a2.785 2.785 0 01-2.783 2.771H6.956a2.786 2.786 0 01-2.783-2.771V13.922h4.174zm9.739 12.468c3.84 0 6.957-3.103 6.957-6.926s-3.116-6.926-6.956-6.926-6.957 3.103-6.957 6.926 3.117 6.926 6.957 6.926zm-4.452-6.927c0 2.452 1.989 4.433 4.452 4.433s4.452-1.981 4.452-4.433-1.99-4.433-4.452-4.433-4.452 1.981-4.452 4.433z"/></symbol><symbol viewBox="0 0 32 32" id="camera1" xmlns="http://www.w3.org/2000/svg"><path d="M9.5 19a6.5 6.5 0 1013 0 6.5 6.5 0 00-13 0zM30 8h-7c-.5-2-1-4-3-4h-8c-2 0-2.5 2-3 4H2c-1.1 0-2 .9-2 2v18c0 1.1.9 2 2 2h28c1.1 0 2-.9 2-2V10c0-1.1-.9-2-2-2zM16 27.876a8.876 8.876 0 110-17.752 8.876 8.876 0 010 17.752zM30 14h-4v-2h4v2z"/></symbol><symbol viewBox="0 0 32 32" id="car" xmlns="http://www.w3.org/2000/svg"><path d="M7.5 19q0-1.031-.734-1.766T5 16.5t-1.766.734T2.5 19t.734 1.766T5 21.5t1.766-.734T7.5 19zm.562-5h15.875l-1.391-5.578q-.031-.125-.219-.273t-.328-.148h-12q-.141 0-.328.148t-.219.273zM29.5 19q0-1.031-.734-1.766T27 16.5t-1.766.734T24.5 19t.734 1.766T27 21.5t1.766-.734T29.5 19zm2.5-1.5v6q0 .219-.141.359T31.5 24H30v2q0 1.25-.875 2.125T27 29t-2.125-.875T24 26v-2H8v2q0 1.25-.875 2.125T5 29t-2.125-.875T2 26v-2H.5q-.219 0-.359-.141T0 23.5v-6q0-1.453 1.023-2.477T3.5 14h.438l1.641-6.547q.359-1.469 1.625-2.461T10.001 4h12q1.531 0 2.797.992t1.625 2.461L28.064 14h.438q1.453 0 2.477 1.023t1.023 2.477z"/></symbol><symbol viewBox="0 0 32 32" id="cart" xmlns="http://www.w3.org/2000/svg"><path d="M12 29a3 3 0 11-6 0 3 3 0 016 0zM32 29a3 3 0 11-6 0 3 3 0 016 0zM32 16V4H8a2 2 0 00-2-2H0v2h4l1.502 12.877A4 4 0 008 24h24v-2H8a2 2 0 01-2-2v-.02L32 16z"/></symbol><symbol viewBox="0 0 32 32" id="checkmark" xmlns="http://www.w3.org/2000/svg"><path d="M27 4L12 19l-7-7-5 5 12 12L32 9z"/></symbol><symbol viewBox="0 0 32 32" id="chevron-down" xmlns="http://www.w3.org/2000/svg"><path d="M30.054 14.429l-13.25 13.232Q16.465 28 16 28t-.804-.339L1.946 14.429q-.339-.339-.339-.813t.339-.813L4.91 9.857q.339-.339.804-.339t.804.339L16 19.339l9.482-9.482q.339-.339.804-.339t.804.339l2.964 2.946q.339.339.339.813t-.339.813z"/></symbol><symbol viewBox="0 0 23 32" id="chevron-left" xmlns="http://www.w3.org/2000/svg"><path d="M20.911 5.375l-9.482 9.482 9.482 9.482q.339.339.339.804t-.339.804l-2.964 2.964q-.339.339-.804.339t-.804-.339l-13.25-13.25q-.339-.339-.339-.804t.339-.804L16.339.803q.339-.339.804-.339t.804.339l2.964 2.964q.339.339.339.804t-.339.804z"/></symbol><symbol viewBox="0 0 23 32" id="chevron-right" xmlns="http://www.w3.org/2000/svg"><path d="M19.768 15.661l-13.25 13.25q-.339.339-.804.339t-.804-.339l-2.964-2.964q-.339-.339-.339-.804t.339-.804l9.482-9.482-9.482-9.482q-.339-.339-.339-.804t.339-.804L4.91.803q.339-.339.804-.339t.804.339l13.25 13.25q.339.339.339.804t-.339.804z"/></symbol><symbol viewBox="0 0 32 32" id="chevron-up" xmlns="http://www.w3.org/2000/svg"><path d="M30.054 23.768l-2.964 2.946q-.339.339-.804.339t-.804-.339L16 17.232l-9.482 9.482q-.339.339-.804.339t-.804-.339l-2.964-2.946q-.339-.339-.339-.813t.339-.813L15.196 8.91q.339-.339.804-.339t.804.339l13.25 13.232q.339.339.339.813t-.339.813z"/></symbol><symbol viewBox="0 0 32 32" id="clock" xmlns="http://www.w3.org/2000/svg"><path d="M20.586 23.414L14 16.828V8h4v7.172l5.414 5.414zM16 0C7.163 0 0 7.163 0 16s7.163 16 16 16 16-7.163 16-16S24.837 0 16 0zm0 28C9.373 28 4 22.627 4 16S9.373 4 16 4s12 5.373 12 12-5.373 12-12 12z"/></symbol><symbol viewBox="0 0 32 32" id="cloud-download" xmlns="http://www.w3.org/2000/svg"><path d="M27.844 11.252A7.438 7.438 0 0020.411 4a7.42 7.42 0 00-5.839 2.835 4.168 4.168 0 00-3.303-1.624 4.177 4.177 0 00-4.133 4.771 6.056 6.056 0 00-7.134 5.96A6.056 6.056 0 006.056 22h2.868l7.078 7.328L23.08 22h3.484a5.45 5.45 0 001.282-10.747zM16 26l-6-6h4v-6h4v6h4l-6 6z"/></symbol><symbol viewBox="0 0 32 32" id="cloud-upload" xmlns="http://www.w3.org/2000/svg"><path d="M27.883 12.078a5 5 0 00-6.168-5.911 6.003 6.003 0 00-11.475.151A8 8 0 108 22h4v6h8v-6h7a5 5 0 00.883-9.922zM18 20v6h-4v-6H9l7-7 7 7h-5z"/></symbol><symbol viewBox="0 0 32 32" id="cog" xmlns="http://www.w3.org/2000/svg"><path d="M29.181 19.07c-1.679-2.908-.669-6.634 2.255-8.328l-3.145-5.447a6.022 6.022 0 01-3.058.829c-3.361 0-6.085-2.742-6.085-6.125h-6.289a6.023 6.023 0 01-.811 3.07C10.369 5.977 6.637 6.966 3.709 5.28L.565 10.727a6.023 6.023 0 012.246 2.234c1.676 2.903.672 6.623-2.241 8.319l3.145 5.447a6.022 6.022 0 013.044-.82c3.35 0 6.067 2.725 6.084 6.092h6.289a6.032 6.032 0 01.811-3.038c1.676-2.903 5.399-3.894 8.325-2.219l3.145-5.447a6.032 6.032 0 01-2.232-2.226zM16 22.479A6.48 6.48 0 1116 9.52a6.48 6.48 0 010 12.959z"/></symbol><symbol viewBox="0 0 32 32" id="cogs" xmlns="http://www.w3.org/2000/svg"><path d="M11.366 22.564l1.291-1.807-1.414-1.414-1.807 1.291a4.996 4.996 0 00-1.071-.444L8 18H6l-.365 2.19a4.946 4.946 0 00-1.071.444l-1.807-1.291-1.414 1.414 1.291 1.807a4.943 4.943 0 00-.443 1.071L.001 24v2l2.19.365c.107.377.256.736.444 1.071l-1.291 1.807 1.414 1.414 1.807-1.291c.335.187.694.337 1.071.444L6.001 32h2l.365-2.19a4.946 4.946 0 001.071-.444l1.807 1.291 1.414-1.414-1.291-1.807c.187-.335.337-.694.444-1.071l2.19-.365v-2l-2.19-.365a4.946 4.946 0 00-.444-1.071zM7 27a2 2 0 11-.001-3.999A2 2 0 017 27zm25-15v-2l-2.106-.383a8.715 8.715 0 00-.148-.743l1.799-1.159-.765-1.848-2.092.452a8.957 8.957 0 00-.422-.629l1.219-1.761-1.414-1.414-1.761 1.219a8.957 8.957 0 00-.629-.422l.452-2.092-1.848-.765-1.159 1.799a9.122 9.122 0 00-.743-.148L22 0h-2l-.383 2.106a8.715 8.715 0 00-.743.148L17.715.455l-1.848.765.452 2.092a8.957 8.957 0 00-.629.422l-1.761-1.219-1.414 1.414 1.219 1.761c-.149.203-.29.413-.422.629l-2.092-.452-.765 1.848 1.799 1.159a9.122 9.122 0 00-.148.743L10 10v2l2.106.383c.039.251.088.499.148.743l-1.799 1.159.765 1.848 2.092-.452c.132.216.273.426.422.629l-1.219 1.761 1.414 1.414 1.761-1.219c.203.149.413.29.629.422l-.452 2.092 1.848.765 1.159-1.799c.244.059.492.109.743.148L20 22h2l.383-2.106c.251-.039.499-.088.743-.148l1.159 1.799 1.848-.765-.452-2.092c.216-.132.426-.273.629-.422l1.761 1.219 1.414-1.414-1.219-1.761c.149-.203.29-.413.422-.629l2.092.452.765-1.848-1.799-1.159c.059-.244.109-.492.148-.743L32 12zm-11 3.35a4.35 4.35 0 11.001-8.701A4.35 4.35 0 0121 15.35z"/></symbol><symbol viewBox="0 0 32 32" id="credit-card" xmlns="http://www.w3.org/2000/svg"><path d="M29 4H3C1.35 4 0 5.35 0 7v18c0 1.65 1.35 3 3 3h26c1.65 0 3-1.35 3-3V7c0-1.65-1.35-3-3-3zM3 6h26c.542 0 1 .458 1 1v3H2V7c0-.542.458-1 1-1zm26 20H3c-.542 0-1-.458-1-1v-9h28v9c0 .542-.458 1-1 1zM4 20h2v4H4zm4 0h2v4H8zm4 0h2v4h-2z"/></symbol><symbol viewBox="0 0 32 32" id="crop" xmlns="http://www.w3.org/2000/svg"><path d="M26 8l6-6-2-2-6 6H10V0H6v6H0v4h6v16h16v6h4v-6h6v-4h-6V8zm-16 2h10L10 20V10zm2 12l10-10v10H12z"/></symbol><symbol viewBox="0 0 32 32" id="cross" xmlns="http://www.w3.org/2000/svg"><path d="M31.708 25.708L22 16l9.708-9.708a1 1 0 000-1.414L27.122.292a1 1 0 00-1.414-.001L16 9.999 6.292.291a.998.998 0 00-1.414.001L.292 4.878a1 1 0 000 1.414L10 16 .292 25.708a.999.999 0 000 1.414l4.586 4.586a1 1 0 001.414 0L16 22l9.708 9.708a1 1 0 001.414 0l4.586-4.586a.999.999 0 000-1.414z"/></symbol><symbol viewBox="0 0 32 32" id="cutlery" xmlns="http://www.w3.org/2000/svg"><path d="M7 0C3.686 0 1 3.134 1 7c0 3.31 1.969 6.083 4.616 6.812l-.993 16.191a1.863 1.863 0 001.878 1.996h1c1.1 0 1.945-.898 1.878-1.996l-.993-16.191c2.646-.729 4.616-3.502 4.616-6.812 0-3.866-2.686-7-6-7zm20.167 0L25.5 10h-1.25l-.833-10h-.833l-.833 10h-1.25L18.834 0h-.833v13a1 1 0 001 1h2.604l-.982 16.004A1.863 1.863 0 0022.501 32h1c1.1 0 1.945-.898 1.878-1.996L24.397 14h2.604a1 1 0 001-1V0h-.833z"/></symbol><symbol viewBox="0 0 32 32" id="database" xmlns="http://www.w3.org/2000/svg"><path d="M16 0C7.163 0 0 2.239 0 5v4c0 2.761 7.163 5 16 5s16-2.239 16-5V5c0-2.761-7.163-5-16-5z"/><path d="M16 17c-8.837 0-16-2.239-16-5v6c0 2.761 7.163 5 16 5s16-2.239 16-5v-6c0 2.761-7.163 5-16 5z"/><path d="M16 26c-8.837 0-16-2.239-16-5v6c0 2.761 7.163 5 16 5s16-2.239 16-5v-6c0 2.761-7.163 5-16 5z"/></symbol><symbol viewBox="0 0 32 32" id="device-desktop" xmlns="http://www.w3.org/2000/svg"><path d="M0 2v20h32V2H0zm30 18H2V4h28v16zm-9 4H11l-1 4-2 2h16l-2-2z"/></symbol><symbol viewBox="0 0 32 32" id="device-mobile" xmlns="http://www.w3.org/2000/svg"><path d="M23 0H9C7.35 0 6 1.35 6 3v26c0 1.65 1.35 3 3 3h14c1.65 0 3-1.35 3-3V3c0-1.65-1.35-3-3-3zM12 1.5h8v1h-8v-1zM16 30a2 2 0 11-.001-3.999A2 2 0 0116 30zm8-6H8V4h16v20z"/></symbol><symbol viewBox="0 0 32 32" id="device-tablet" xmlns="http://www.w3.org/2000/svg"><path d="M24 0H6C4.9 0 4 .9 4 2v28c0 1.1.9 2 2 2h18c1.1 0 2-.9 2-2V2c0-1.1-.9-2-2-2zm-9 30.556a1.556 1.556 0 110-3.113 1.556 1.556 0 010 3.113zM24 26H6V4h18v22z"/></symbol><symbol viewBox="0 0 32 32" id="dots-horizontal" xmlns="http://www.w3.org/2000/svg"><path d="M24 15.636a4.003 4.003 0 014-4 4.001 4.001 0 012.828 6.828 4.001 4.001 0 01-5.656 0A4.001 4.001 0 0124 15.636zm-12 0a4.003 4.003 0 014-4 4.003 4.003 0 014 4 4.001 4.001 0 01-6.828 2.828A4.001 4.001 0 0112 15.636zm-12 0a4.003 4.003 0 014-4 4.003 4.003 0 014 4 4.003 4.003 0 01-4 4 4.003 4.003 0 01-4-4z"/></symbol><symbol viewBox="0 0 9 32" id="dots-vertical" xmlns="http://www.w3.org/2000/svg"><path d="M4 24a4.003 4.003 0 014 4 4.001 4.001 0 01-6.828 2.828 4.001 4.001 0 010-5.656A4.001 4.001 0 014 24zm0-12a4.003 4.003 0 014 4 4.003 4.003 0 01-4 4 4.001 4.001 0 01-2.828-6.828A4.001 4.001 0 014 12zM4 0a4.003 4.003 0 014 4 4.003 4.003 0 01-4 4 4.003 4.003 0 01-4-4 4.003 4.003 0 014-4z"/></symbol><symbol viewBox="0 0 32 32" id="earth" xmlns="http://www.w3.org/2000/svg"><path d="M16 0C7.163 0 0 7.163 0 16s7.163 16 16 16 16-7.163 16-16S24.837 0 16 0zm0 30c-1.967 0-3.84-.407-5.538-1.139l7.286-8.197a.998.998 0 00.253-.664v-3a1 1 0 00-1-1c-3.531 0-7.256-3.671-7.293-3.707A1 1 0 009.001 12h-4a1 1 0 00-1 1v6c0 .379.214.725.553.894l3.447 1.724v5.871c-3.627-2.53-6-6.732-6-11.49 0-2.147.484-4.181 1.348-6h3.652c.265 0 .52-.105.707-.293l4-4a1 1 0 00.293-.707V2.58a14.013 14.013 0 014-.581c2.2 0 4.281.508 6.134 1.412a5.961 5.961 0 00-2.133 4.588c0 1.603.624 3.109 1.757 4.243a5.985 5.985 0 004.536 1.751c.432 1.619 1.211 5.833-.263 11.635a.936.936 0 00-.026.163 13.956 13.956 0 01-10.004 4.208z"/></symbol><symbol viewBox="0 0 32 32" id="eject" xmlns="http://www.w3.org/2000/svg"><path d="M0 24h32v4H0zM16 4l16 16H0z"/></symbol><symbol viewBox="0 0 32 32" id="entertainment" xmlns="http://www.w3.org/2000/svg"><path d="M29.714 4v20c0 2.518-3.768 3.429-5.714 3.429s-5.714-.911-5.714-3.429 3.768-3.429 5.714-3.429c1.178 0 2.358.214 3.429.696v-9.59l-13.714 4.232V28.57c0 2.518-3.768 3.429-5.714 3.429s-5.714-.911-5.714-3.429 3.768-3.429 5.714-3.429c1.178 0 2.358.214 3.429.696V8.57c0-.75.501-1.41 1.214-1.642l14.857-4.571a1.53 1.53 0 01.501-.072c.946 0 1.714.768 1.714 1.714z"/></symbol><symbol viewBox="0 0 32 32" id="envelope" xmlns="http://www.w3.org/2000/svg"><path d="M3.2 2.909h25.6c.849 0 1.663.345 2.263.959S32 5.314 32 6.182v19.636c0 .868-.337 1.7-.937 2.314s-1.414.959-2.263.959H3.2c-1.776 0-3.2-1.473-3.2-3.273V6.182c0-1.816 1.424-3.273 3.2-3.273zM16 14.364l12.8-8.182H3.2L16 14.364zM3.2 25.818h25.6V10.06L16 18.225 3.2 10.06v15.758z"/></symbol><symbol viewBox="0 0 32 32" id="exit" xmlns="http://www.w3.org/2000/svg"><path d="M24 20v-4H14v-4h10V8l6 6zm-2-2v8H12v6L0 26V0h22v10h-2V2H4l8 4v18h8v-6z"/></symbol><symbol viewBox="0 0 32 32" id="eye" xmlns="http://www.w3.org/2000/svg"><path d="M16 6C9.021 6 2.972 10.064 0 16c2.972 5.936 9.021 10 16 10s13.027-4.064 16-10c-2.972-5.936-9.021-10-16-10zm7.889 5.303A15.212 15.212 0 0128.559 16a15.223 15.223 0 01-4.67 4.697C21.527 22.204 18.799 23 16 23s-5.527-.796-7.889-2.303A15.212 15.212 0 013.441 16a15.223 15.223 0 015.041-4.925 8 8 0 1015.036 0c.124.074.248.15.371.228zM16 13a3 3 0 11-6 0 3 3 0 016 0z"/></symbol><symbol viewBox="0 0 32 32" id="eye-blocked" xmlns="http://www.w3.org/2000/svg"><path d="M29.561.439a1.5 1.5 0 00-2.121 0l-6.318 6.318A17.626 17.626 0 0016 6C9.021 6 2.972 10.064 0 16a18.323 18.323 0 005.407 6.472L.439 27.44a1.5 1.5 0 102.122 2.121l27-27a1.5 1.5 0 000-2.121zM13 10a3 3 0 012.841 2.037l-3.804 3.804A3 3 0 0113 10zm-9.559 6a15.223 15.223 0 015.041-4.925A7.985 7.985 0 008 13.812c0 1.715.54 3.304 1.459 4.607l-1.904 1.904A15.219 15.219 0 013.441 16zM24 13.813c0-.849-.133-1.667-.378-2.434L13.566 21.435a8 8 0 0010.435-7.622z"/><path d="M25.938 9.062L23.77 11.23l.118.074a15.212 15.212 0 014.67 4.697 15.223 15.223 0 01-4.67 4.697 14.642 14.642 0 01-11.45 1.864l-2.403 2.403a17.587 17.587 0 005.964 1.036c6.978 0 13.027-4.064 16-10a18.292 18.292 0 00-6.062-6.938z"/></symbol><symbol viewBox="0 0 32 32" id="eyedropper" xmlns="http://www.w3.org/2000/svg"><path d="M30.828 1.172a4 4 0 00-5.656 0L19.794 6.55l-3.792-3.792L11.76 7l3.326 3.326L.332 25.08A1.122 1.122 0 00.01 26H.002v5a1 1 0 001 1h5.126c.288 0 .576-.11.796-.33l14.754-14.754 3.326 3.326L29.246 16l-3.792-3.792 5.378-5.378a4 4 0 000-5.656zM5.41 30H2v-3.41l14.674-14.674 3.408 3.408L5.408 29.998z"/></symbol><symbol viewBox="0 0 32 32" id="facebook" xmlns="http://www.w3.org/2000/svg"><path d="M19 6h5V0h-5c-3.86 0-7 3.14-7 7v3H8v6h4v16h6V16h5l1-6h-6V7c0-.542.458-1 1-1z"/></symbol><symbol viewBox="0 0 32 32" id="file-excel" xmlns="http://www.w3.org/2000/svg"><path d="M23.22 12h-4.228L16 16.407 13.008 12H8.78l5.068 7.577L8.13 28H16v-2.862h-1.567L16 22.794l3.481 5.205h4.389l-5.718-8.423 5.068-7.577z"/><path d="M28.681 7.159c-.694-.947-1.662-2.053-2.724-3.116s-2.169-2.03-3.116-2.724C21.229.137 20.448 0 20 0H4.5A2.503 2.503 0 002 2.5v27C2 30.878 3.121 32 4.5 32h23c1.378 0 2.5-1.122 2.5-2.5V10c0-.448-.137-1.23-1.319-2.841zm-4.138-1.702A27.334 27.334 0 0126.811 8H22V3.189a27.334 27.334 0 012.543 2.268zM28 29.5c0 .271-.229.5-.5.5h-23a.507.507 0 01-.5-.5v-27c0-.271.229-.5.5-.5H20v7a1 1 0 001 1h7v19.5z"/></symbol><symbol viewBox="0 0 32 32" id="file-pdf" xmlns="http://www.w3.org/2000/svg"><path d="M26.313 18.421c-.427-.42-1.372-.643-2.812-.662-.974-.011-2.147.075-3.38.248-.552-.319-1.122-.665-1.568-1.083-1.202-1.122-2.205-2.68-2.831-4.394.041-.16.075-.301.108-.444 0 0 .677-3.846.498-5.146a1.526 1.526 0 00-.088-.369l-.059-.151c-.184-.425-.545-.875-1.111-.85l-.341-.011c-.631 0-1.146.323-1.281.805-.411 1.514.013 3.778.781 6.711l-.197.478c-.55 1.34-1.238 2.689-1.846 3.88l-.079.155a65.82 65.82 0 01-1.745 3.213l-.543.287c-.04.021-.97.513-1.188.645-1.852 1.106-3.079 2.361-3.282 3.357-.065.318-.017.725.313.913l.525.264c.228.114.468.172.714.172 1.319 0 2.85-1.643 4.959-5.324a49.318 49.318 0 017.638-1.815c1.852 1.043 4.129 1.767 5.567 1.767.255 0 .475-.024.654-.072a1.11 1.11 0 00.65-.444c.279-.42.335-.998.26-1.59-.023-.176-.163-.393-.315-.541zM6.614 25.439c.241-.658 1.192-1.958 2.6-3.111.088-.072.306-.276.506-.466-1.472 2.348-2.458 3.283-3.106 3.577zM14.951 6.24c.424 0 .665 1.069.685 2.07s-.214 1.705-.505 2.225c-.241-.77-.357-1.984-.357-2.778 0 0-.018-1.517.177-1.517zm-2.487 13.682c.295-.529.603-1.086.917-1.677a31.984 31.984 0 001.609-3.511c.716 1.303 1.608 2.41 2.656 3.297.131.111.269.222.415.333-2.132.422-3.974.935-5.596 1.558zm13.439-.12c-.13.081-.502.128-.741.128-.772 0-1.727-.353-3.066-.927.515-.038.986-.057 1.409-.057.774 0 1.004-.003 1.761.19s.767.585.637.667z"/><path d="M28.681 7.159c-.694-.947-1.662-2.053-2.724-3.116s-2.169-2.03-3.116-2.724C21.229.137 20.448 0 20 0H4.5A2.503 2.503 0 002 2.5v27C2 30.878 3.121 32 4.5 32h23c1.378 0 2.5-1.122 2.5-2.5V10c0-.448-.137-1.23-1.319-2.841zm-4.138-1.702A27.334 27.334 0 0126.811 8H22V3.189a27.334 27.334 0 012.543 2.268zM28 29.5c0 .271-.229.5-.5.5h-23a.507.507 0 01-.5-.5v-27c0-.271.229-.5.5-.5H20v7a1 1 0 001 1h7v19.5z"/></symbol><symbol viewBox="0 0 32 32" id="file-text" xmlns="http://www.w3.org/2000/svg"><path d="M27 0H3C1.35 0 0 1.35 0 3v26c0 1.65 1.35 3 3 3h24c1.65 0 3-1.35 3-3V3c0-1.65-1.35-3-3-3zm-1 28H4V4h22v24zM8 14h14v2H8zm0 4h14v2H8zm0 4h14v2H8zm0-12h14v2H8z"/></symbol><symbol viewBox="0 0 32 32" id="file-word" xmlns="http://www.w3.org/2000/svg"><path d="M19.993 14.872h1.382l-1.594 7.068-2.073-9.938h-3.33l-2.41 9.938-1.807-9.938H6.68l3.534 15.996h3.401l2.384-9.46 2.133 9.46h3.136l4.051-15.996h-5.326v2.87z"/><path d="M28.681 7.159c-.694-.947-1.662-2.053-2.724-3.116s-2.169-2.03-3.116-2.724C21.229.137 20.448 0 20 0H4.5A2.503 2.503 0 002 2.5v27C2 30.878 3.121 32 4.5 32h23c1.378 0 2.5-1.122 2.5-2.5V10c0-.448-.137-1.23-1.319-2.841zm-4.138-1.702A27.334 27.334 0 0126.811 8H22V3.189a27.334 27.334 0 012.543 2.268zM28 29.5c0 .271-.229.5-.5.5h-23a.507.507 0 01-.5-.5v-27c0-.271.229-.5.5-.5H20v7a1 1 0 001 1h7v19.5z"/></symbol><symbol viewBox="0 0 32 32" id="film" xmlns="http://www.w3.org/2000/svg"><path d="M0 4v24h32V4H0zm6 22H2v-4h4v4zm0-8H2v-4h4v4zm0-8H2V6h4v4zm18 16H8V6h16v20zm6 0h-4v-4h4v4zm0-8h-4v-4h4v4zm0-8h-4V6h4v4zm-18 0v12l8-6z"/></symbol><symbol viewBox="0 0 32 32" id="filters" xmlns="http://www.w3.org/2000/svg"><path d="M0 3.4v3h7.2c.8 2 2.6 3.4 4.8 3.4s4-1.4 4.6-3.4H32v-3H16.6C15.8 1.4 14 0 12 0S8 1.4 7.4 3.4H0zm10 1.4c0-1 .8-1.8 2-1.8s1.8.8 1.8 1.8-.8 2-1.8 2-2-.8-2-2zM0 25.6v3h5c.6 2 2.4 3.4 4.6 3.4s4-1.4 4.6-3.4H32v-3H14.4c-.6-2-2.4-3.4-4.6-3.4s-4 1.4-4.6 3.4H0zm7.8 1.6c0-1 .8-1.8 1.8-1.8s1.8.8 1.8 1.8-.8 1.8-1.8 1.8-1.8-.8-1.8-1.8zM0 14.4v3h16c.6 2 2.4 3.4 4.6 3.4s4-1.4 4.6-3.4H32v-3h-6.8c-.6-2-2.4-3.4-4.6-3.4s-4 1.6-4.6 3.4H0zM18.8 16c0-1 .8-1.8 1.8-1.8s1.8.8 1.8 1.8-.8 1.8-1.8 1.8-1.8-.8-1.8-1.8z"/></symbol><symbol viewBox="0 0 32 32" id="first" xmlns="http://www.w3.org/2000/svg"><path d="M4 28V4h4v11L18 5v10L28 5v22L18 17v10L8 17v11z"/></symbol><symbol viewBox="0 0 32 32" id="forward" xmlns="http://www.w3.org/2000/svg"><path d="M16 27V17L6 27V5l10 10V5l11 11z"/></symbol><symbol viewBox="0 0 32 32" id="google" xmlns="http://www.w3.org/2000/svg"><path d="M16 0C7.162 0 0 7.162 0 16s7.162 16 16 16 16-7.163 16-16S24.837 0 16 0zm.238 28c-6.631 0-12-5.369-12-12s5.369-12 12-12c3.238 0 5.95 1.181 8.037 3.138l-3.256 3.138c-.894-.856-2.45-1.85-4.781-1.85-4.1 0-7.438 3.394-7.438 7.575s3.344 7.575 7.438 7.575c4.75 0 6.531-3.413 6.806-5.175h-6.806v-4.113h11.331c.1.6.188 1.2.188 1.988.006 6.856-4.588 11.725-11.519 11.725z"/></symbol><symbol viewBox="0 0 32 32" id="heart-empty" xmlns="http://www.w3.org/2000/svg"><path d="M16.16 26.106l-.16.159-.176-.159C8.224 19.273 3.2 14.755 3.2 10.173c0-3.171 2.4-5.549 5.6-5.549 2.464 0 4.864 1.585 5.712 3.741h2.976c.848-2.156 3.248-3.741 5.712-3.741 3.2 0 5.6 2.378 5.6 5.549 0 4.582-5.024 9.1-12.64 15.933zM23.2 1.455c-2.784 0-5.456 1.284-7.2 3.297-1.744-2.013-4.416-3.297-7.2-3.297-4.928 0-8.8 3.821-8.8 8.719 0 5.977 5.44 10.875 13.68 18.279L16 30.546l2.32-2.093C26.56 21.049 32 16.151 32 10.174c0-4.899-3.872-8.719-8.8-8.719z"/></symbol><symbol viewBox="0 0 32 32" id="heart-filled" xmlns="http://www.w3.org/2000/svg"><path d="M16 30.545l-2.32-2.093C5.44 21.048 0 16.15 0 10.173c0-4.899 3.872-8.719 8.8-8.719 2.784 0 5.456 1.284 7.2 3.297 1.744-2.013 4.416-3.297 7.2-3.297 4.928 0 8.8 3.821 8.8 8.719 0 5.977-5.44 10.875-13.68 18.279L16 30.545z"/></symbol><symbol viewBox="0 0 32 32" id="home" xmlns="http://www.w3.org/2000/svg"><path d="M32 18.452L16 6.032 0 18.452v-5.064L16 .968l16 12.42zM28 18v12h-8v-8h-8v8H4V18l12-9z"/></symbol><symbol viewBox="0 0 32 32" id="image" xmlns="http://www.w3.org/2000/svg"><path d="M29.996 4l.004.004v23.992l-.004.004H2.004L2 27.996V4.004L2.004 4h27.992zM30 2H2C.9 2 0 2.9 0 4v24c0 1.1.9 2 2 2h28c1.1 0 2-.9 2-2V4c0-1.1-.9-2-2-2z"/><path d="M26 9a3.001 3.001 0 01-6 0 3.001 3.001 0 016 0zM28 26H4v-4l7-12 8 10h2l7-6z"/></symbol><symbol viewBox="0 0 36 32" id="images" xmlns="http://www.w3.org/2000/svg"><path d="M34 4h-2V2c0-1.1-.9-2-2-2H2C.9 0 0 .9 0 2v24c0 1.1.9 2 2 2h2v2c0 1.1.9 2 2 2h28c1.1 0 2-.9 2-2V6c0-1.1-.9-2-2-2zM4 6v20H2.004L2 25.996V2.004L2.004 2h27.992l.004.004V4H6c-1.1 0-2 .9-2 2zm30 23.996l-.004.004H6.004L6 29.996V6.004L6.004 6h27.992l.004.004v23.992z"/><path d="M30 11a3.001 3.001 0 01-6 0 3.001 3.001 0 016 0zM32 28H8v-4l7-12 8 10h2l7-6z"/></symbol><symbol viewBox="0 0 32 32" id="info" xmlns="http://www.w3.org/2000/svg"><path d="M14 9.5c0-.825.675-1.5 1.5-1.5h1c.825 0 1.5.675 1.5 1.5v1c0 .825-.675 1.5-1.5 1.5h-1c-.825 0-1.5-.675-1.5-1.5v-1zM20 24h-8v-2h2v-6h-2v-2h6v8h2z"/><path d="M16 0C7.163 0 0 7.163 0 16s7.163 16 16 16 16-7.163 16-16S24.837 0 16 0zm0 29C8.82 29 3 23.18 3 16S8.82 3 16 3s13 5.82 13 13-5.82 13-13 13z"/></symbol><symbol viewBox="0 0 32 32" id="key" xmlns="http://www.w3.org/2000/svg"><path d="M22 0c-5.523 0-10 4.477-10 10 0 .626.058 1.238.168 1.832L0 24v6a2 2 0 002 2h2v-2h4v-4h4v-4h4l2.595-2.595A9.977 9.977 0 0022 20c5.523 0 10-4.477 10-10S27.523 0 22 0zm2.996 10.004a3 3 0 110-6 3 3 0 010 6z"/></symbol><symbol viewBox="0 0 32 32" id="last" xmlns="http://www.w3.org/2000/svg"><path d="M28 4v24h-4V17L14 27V17L4 27V5l10 10V5l10 10V4z"/></symbol><symbol viewBox="0 0 32 32" id="list" xmlns="http://www.w3.org/2000/svg"><path d="M0 0h8v8H0zm12 2h20v4H12zM0 12h8v8H0zm12 2h20v4H12zM0 24h8v8H0zm12 2h20v4H12z"/></symbol><symbol viewBox="0 0 32 32" id="location" xmlns="http://www.w3.org/2000/svg"><path d="M16 0C10.477 0 6 4.477 6 10c0 10 10 22 10 22s10-12 10-22c0-5.523-4.477-10-10-10zm0 16a6 6 0 110-12 6 6 0 010 12z"/></symbol><symbol viewBox="0 0 32 32" id="location2" xmlns="http://www.w3.org/2000/svg"><path d="M16 0C10.477 0 6 4.477 6 10c0 10 10 22 10 22s10-12 10-22c0-5.523-4.477-10-10-10zm0 16.125a6.125 6.125 0 110-12.25 6.125 6.125 0 010 12.25zM12.125 10a3.875 3.875 0 117.75 0 3.875 3.875 0 01-7.75 0z"/></symbol><symbol viewBox="0 0 32 32" id="lock" xmlns="http://www.w3.org/2000/svg"><path d="M18.5 14H18V8c0-3.308-2.692-6-6-6H8C4.692 2 2 4.692 2 8v6h-.5c-.825 0-1.5.675-1.5 1.5v15c0 .825.675 1.5 1.5 1.5h17c.825 0 1.5-.675 1.5-1.5v-15c0-.825-.675-1.5-1.5-1.5zM6 8c0-1.103.897-2 2-2h4c1.103 0 2 .897 2 2v6H6V8z"/></symbol><symbol viewBox="0 0 32 32" id="map" xmlns="http://www.w3.org/2000/svg"><path d="M21 6L11 2 0 6v24l11-4 10 4 11-4V2L21 6zm-9-1.446l8 3.2v19.692l-8-3.2V4.554zM2 7.401l8-2.909v19.744l-8 2.909V7.401zm28 17.198l-8 2.909V7.764l8-2.909v19.744z"/></symbol><symbol viewBox="0 0 32 32" id="minus" xmlns="http://www.w3.org/2000/svg"><path d="M0 13v6a1 1 0 001 1h30a1 1 0 001-1v-6a1 1 0 00-1-1H1a1 1 0 00-1 1z"/></symbol><symbol viewBox="0 0 32 32" id="next" xmlns="http://www.w3.org/2000/svg"><path d="M24 4v24h-4V17L10 27V5l10 10V4z"/></symbol><symbol viewBox="0 0 32 32" id="notification" xmlns="http://www.w3.org/2000/svg"><path d="M24 21.313l2.688 2.688v1.313H5.313v-1.313l2.688-2.688v-6.625q0-3.125 1.594-5.438t4.406-3v-.938q0-.813.563-1.406t1.438-.594 1.438.594.563 1.406v.938q2.813.688 4.406 3t1.594 5.438v6.625zm-8 8q-1.125 0-1.906-.75t-.781-1.875h5.375q0 1.063-.813 1.844T16 29.313z"/></symbol><symbol viewBox="0 0 32 32" id="office" xmlns="http://www.w3.org/2000/svg"><path d="M0 32h16V0H0v32zM10 4h4v4h-4V4zm0 8h4v4h-4v-4zm0 8h4v4h-4v-4zM2 4h4v4H2V4zm0 8h4v4H2v-4zm0 8h4v4H2v-4zm16-10h14v2H18zm0 22h4v-8h6v8h4V14H18z"/></symbol><symbol viewBox="0 0 32 32" id="pause" xmlns="http://www.w3.org/2000/svg"><path d="M4 4h10v24H4zm14 0h10v24H18z"/></symbol><symbol viewBox="0 0 32 32" id="paypal" xmlns="http://www.w3.org/2000/svg"><path d="M29.063 9.644c-1.494 6.631-6.106 10.131-13.375 10.131h-2.419L11.588 30.45H9.563l-.106.688a.748.748 0 00.738.863h5.175c.613 0 1.131-.444 1.231-1.05l.05-.262.975-6.181.063-.337a1.244 1.244 0 011.231-1.05h.769c5.012 0 8.938-2.038 10.088-7.925.431-2.238.269-4.137-.712-5.55z"/><path d="M25.969 2.413C24.488.725 21.806 0 18.382 0H8.438c-.7 0-1.3.506-1.406 1.2L2.888 27.462a.855.855 0 00.844.988h6.144l1.544-9.781-.05.306c.106-.694.7-1.2 1.4-1.2h2.919c5.731 0 10.219-2.325 11.531-9.063.038-.2.075-.394.1-.581.387-2.487 0-4.188-1.35-5.719z"/></symbol><symbol viewBox="0 0 32 32" id="pencil" xmlns="http://www.w3.org/2000/svg"><path d="M31.48 7.186c.693-.693.693-1.849 0-2.506L27.321.521c-.658-.693-1.813-.693-2.506 0l-3.271 3.253 6.666 6.666 3.271-3.253zM0 25.334V32h6.666l19.66-19.677-6.666-6.666L0 25.334z"/></symbol><symbol viewBox="0 0 32 32" id="phone" xmlns="http://www.w3.org/2000/svg"><path d="M22 20c-2 2-2 4-4 4s-4-2-6-4-4-4-4-6 2-2 4-4-4-8-6-8-6 6-6 6c0 4 4.109 12.109 8 16s12 8 16 8c0 0 6-4 6-6s-6-8-8-6z"/></symbol><symbol viewBox="0 0 32 32" id="pie-chart" xmlns="http://www.w3.org/2000/svg"><path d="M14 18V4C6.268 4 0 10.268 0 18s6.268 14 14 14 14-6.268 14-14a13.94 13.94 0 00-1.476-6.262L14 18zM28.524 7.738C26.225 3.15 21.481 0 16 0v14l12.524-6.262z"/></symbol><symbol viewBox="0 0 32 32" id="piggybank" xmlns="http://www.w3.org/2000/svg"><path d="M4.2 10.2c-.4-.2-.6-.2-1-.4-.6 0-1.2.2-1.4.8s-.2 1.2.4 1.6l.4.4c.4.2.6.2 1 0 .2-.4.6-.6.8-1 1.2-1.6 3-2.6 5-3.2 2.4-.8 5-1 7.6-.6.6 0 1.2.2 1.8.2.2 0 .4 0 .4-.2 1-2.2 2.8-3.4 5-4h.2c-.2.4-.2.6-.4.8-.6 1.4-.8 3-.8 4.4 0 1.6.4 3.2 1.6 4.4l.2.2.2.2c-.4-1.2-.8-2.4-.6-3.6h.2c.4.4.8.6 1.2 1 1 1 1.8 2.2 2.2 3.6.4 1 .6 1.2 1.2 1.2h1c.8 0 1.2.6 1.2 1.2v3.6c0 .8-.4 1.2-1.2 1.2h-1c-.6 0-1 .2-1.2.8-.4.8-.8 1.4-1.4 2.2s-1.2 1.2-2 1.8c-.2 0-.4.2-.4.2-.4.2-.4.6-.4 1 .2.4.2.6.4 1 .2.8 0 1.4-.8 1.8-.8.2-1.6.6-2.2.8-.8.2-1.4 0-1.8-.8-.2-.4-.4-1-.6-1.4-.2-.6-.4-.6-1-.6s-1.4.2-2 .2-2.8 0-4.4-.2h-.4c-.4 0-.6 0-.6.4-.2.6-.4 1-.6 1.6-.4 1-1 1.2-2 .8-.6-.2-1.4-.6-2-.8-.8-.4-1.2-1-.8-2 .2-.4.4-1 .6-1.6.2-.4 0-.8-.4-1.2-1.2-1-2.2-2-2.8-3.2-1-1.4-1.2-3-1-4.8 0-.8.2-1.6.4-2.4 0-.4 0-.8-.2-1l-.8-.8c-1-1.2-1-3.2 0-4.2.4-.6 1-1 1.8-.8.6.2 1.2.6 1.4 1.4zM27 17.8c0-1-1-1.8-2-1.8s-1.8.8-1.8 1.8.8 1.8 1.8 1.8 2-.8 2-1.8z"/><path d="M14 6.4c-1.6 0-3.2.4-4.8.8-.2 0-.4 0-.4-.2-1.2-1-1.4-2.4-1-4 .4-1.4 1.6-2.4 3-2.8 2.4-.2 4.6 1.2 4.8 3.6.2.8 0 1.6-.4 2.4l-.2.2h-1z"/></symbol><symbol viewBox="0 0 32 32" id="play" xmlns="http://www.w3.org/2000/svg"><path d="M6 4l20 12L6 28z"/></symbol><symbol viewBox="0 0 32 32" id="plus" xmlns="http://www.w3.org/2000/svg"><path d="M31 12H20V1a1 1 0 00-1-1h-6a1 1 0 00-1 1v11H1a1 1 0 00-1 1v6a1 1 0 001 1h11v11a1 1 0 001 1h6a1 1 0 001-1V20h11a1 1 0 001-1v-6a1 1 0 00-1-1z"/></symbol><symbol viewBox="0 0 32 32" id="previous" xmlns="http://www.w3.org/2000/svg"><path d="M8 28V4h4v11L22 5v22L12 17v11z"/></symbol><symbol viewBox="0 0 32 32" id="printer" xmlns="http://www.w3.org/2000/svg"><path d="M8 2h16v4H8V2zM30 8H2c-1.1 0-2 .9-2 2v10c0 1.1.9 2 2 2h6v8h16v-8h6c1.1 0 2-.9 2-2V10c0-1.1-.9-2-2-2zM4 14a2 2 0 11-.001-3.999A2 2 0 014 14zm18 14H10V18h12v10z"/></symbol><symbol viewBox="0 0 32 32" id="profile" xmlns="http://www.w3.org/2000/svg"><path d="M27 0H3C1.35 0 0 1.35 0 3v26c0 1.65 1.35 3 3 3h24c1.65 0 3-1.35 3-3V3c0-1.65-1.35-3-3-3zm-1 28H4V4h22v24zM8 18h14v2H8zm0 4h14v2H8zm2-13a3.001 3.001 0 016 0 3.001 3.001 0 01-6 0zm5 3h-4c-1.65 0-3 .9-3 2v2h10v-2c0-1.1-1.35-2-3-2z"/></symbol><symbol viewBox="0 0 32 32" id="pushpin" xmlns="http://www.w3.org/2000/svg"><path d="M17 0l-3 3 3 3-7 8H3l5.5 5.5L0 30.769V32h1.231L12.5 23.5 18 29v-7l8-7 3 3 3-3L17 0zm-3 17l-2-2 7-7 2 2-7 7z"/></symbol><symbol viewBox="0 0 32 32" id="quotes-left" xmlns="http://www.w3.org/2000/svg"><path d="M7.031 14a7 7 0 11-7 7L0 20C0 12.268 6.268 6 14 6v4a9.934 9.934 0 00-7.071 2.929 10.24 10.24 0 00-.995 1.157A7.081 7.081 0 017.031 14zm18 0a7 7 0 11-7 7L18 20c0-7.732 6.268-14 14-14v4a9.934 9.934 0 00-7.071 2.929 10.24 10.24 0 00-.995 1.157A7.09 7.09 0 0125.031 14z"/></symbol><symbol viewBox="0 0 32 32" id="quotes-right" xmlns="http://www.w3.org/2000/svg"><path d="M25 20a7 7 0 117-7l.031 1c0 7.732-6.268 14-14 14v-4a9.934 9.934 0 007.071-2.929c.364-.364.695-.75.995-1.157A7.081 7.081 0 0125 20zM7 20a7 7 0 117-7l.031 1c0 7.732-6.268 14-14 14v-4a9.934 9.934 0 007.071-2.929c.364-.364.695-.75.995-1.157A7.081 7.081 0 017 20z"/></symbol><symbol viewBox="0 0 32 32" id="refresh" xmlns="http://www.w3.org/2000/svg"><path d="M27.802 5.197A15.958 15.958 0 0015.999 0c-8.837 0-16 7.163-16 16h3c0-7.18 5.82-13 13-13 3.844 0 7.298 1.669 9.678 4.322L20.999 12h11V1l-4.198 4.197zM29 16c0 7.18-5.82 13-13 13a12.965 12.965 0 01-9.678-4.322L11 20H0v11l4.197-4.197A15.958 15.958 0 0016 32c8.837 0 16-7.163 16-16h-3z"/></symbol><symbol viewBox="0 0 32 32" id="retro-telephone" xmlns="http://www.w3.org/2000/svg"><path d="M16 0C10.3 0 4.587 1.02 2.513 3.053.793 4.74.22 7.72.026 9.606c0 0-.027.187-.027.267 0 .74.6 1.333 1.333 1.333.087 0 3.293-.26 5.227-.42.047-.007.093-.013.14-.027.72-.02 1.3-.607 1.3-1.333l.007-2.627c0-.813.66-1.467 1.473-1.467h13.039c.814 0 1.474.653 1.474 1.467l.007 2.627c0 .727.58 1.313 1.3 1.333.046.013.093.02.14.027 1.933.16 5.14.42 5.227.42.733 0 1.333-.593 1.333-1.333 0-.08-.027-.267-.027-.267-.193-1.887-.766-4.867-2.486-6.553C27.412 1.02 21.699 0 15.999 0zm0 17.333a2.666 2.666 0 100 5.334c1.474 0 2.667-1.193 2.667-2.667S17.474 17.333 16 17.333zm-2-6V9.666a1.668 1.668 0 00-3.334 0v1.667L1.673 20.94a3.334 3.334 0 00-1.007 2.387V26a2.666 2.666 0 002.667 2.667H4v1.667a1.668 1.668 0 003.334 0v-1.667h17.333v1.667a1.668 1.668 0 003.334 0v-1.667h.667A2.666 2.666 0 0031.335 26v-2.673c0-.933-.387-1.78-1.007-2.387l-8.993-9.607V9.666a1.668 1.668 0 00-3.334 0v1.667h-4zm2 3.334c2.947 0 5.333 2.387 5.333 5.333S18.946 25.333 16 25.333 10.667 22.946 10.667 20s2.387-5.333 5.333-5.333z"/></symbol><symbol viewBox="0 0 32 32" id="search" xmlns="http://www.w3.org/2000/svg"><path d="M31.008 27.231l-7.58-6.447c-.784-.705-1.622-1.029-2.299-.998a11.954 11.954 0 002.87-7.787c0-6.627-5.373-12-12-12s-12 5.373-12 12 5.373 12 12 12c2.972 0 5.691-1.081 7.787-2.87-.031.677.293 1.515.998 2.299l6.447 7.58c1.104 1.226 2.907 1.33 4.007.23s.997-2.903-.23-4.007zM12 20a8 8 0 110-16 8 8 0 010 16z"/></symbol><symbol viewBox="0 0 32 32" id="seat" xmlns="http://www.w3.org/2000/svg"><path d="M22.688 17.312H9.313V6.687q0-1.063.812-1.875T12 4h8q1.063 0 1.875.812t.812 1.875v10.625zm-20-4h4v4h-4v-4zm22.624 0h4v4h-4v-4zM5.312 28v-8h21.375v8h-4v-4H9.312v4h-4z"/></symbol><symbol viewBox="0 0 32 32" id="share" xmlns="http://www.w3.org/2000/svg"><path d="M8 20s1.838-6 12-6v6l12-8-12-8v6c-8 0-12 4.99-12 10zm14 4H4V12h3.934c.315-.372.654-.729 1.015-1.068 1.374-1.287 3.018-2.27 4.879-2.932H.001v20h26v-8.395l-4 2.667V24z"/></symbol><symbol viewBox="0 0 32 32" id="share2" xmlns="http://www.w3.org/2000/svg"><path d="M27 22a4.985 4.985 0 00-3.594 1.526L9.937 16.792a5.035 5.035 0 000-1.582l13.469-6.734a5 5 0 10-1.343-2.683L8.594 12.527A5 5 0 105 21.001a4.985 4.985 0 003.594-1.526l13.469 6.734A5 5 0 1027 22z"/></symbol><symbol viewBox="0 0 32 32" id="skype" xmlns="http://www.w3.org/2000/svg"><path d="M13.3 1.169c-.05-.031-.106-.056-.156-.081-.056.012-.106.019-.162.031l.319.05zM1.15 13.156a1.84 1.84 0 00-.025.162c.031.05.05.1.081.15l-.056-.313zM30.837 18.831c.012-.056.019-.113.031-.169-.031-.05-.05-.1-.081-.15l.05.319zM18.5 30.719c.05.031.106.056.156.081a1.64 1.64 0 01.169-.025l-.325-.056z"/><path d="M30.869 18.663c-.012.056-.019.113-.031.169l-.056-.325c.031.056.056.106.087.156.163-.9.25-1.819.25-2.738a15.067 15.067 0 00-4.426-10.687 15.133 15.133 0 00-4.8-3.237A15.023 15.023 0 0016.012.813c-.963 0-1.925.088-2.863.269h-.006c.05.025.106.05.156.081l-.319-.05c.056-.012.106-.019.162-.031A8.99 8.99 0 008.948.032C6.56.032 4.31.963 2.623 2.651S.004 6.588.004 8.976c0 1.519.394 3.019 1.125 4.338a1.84 1.84 0 00.025-.162l.056.319c-.031-.05-.056-.1-.081-.15-.15.856-.225 1.731-.225 2.606a15.072 15.072 0 004.425 10.681 15.1 15.1 0 004.806 3.238 15.023 15.023 0 008.525.95c-.05-.031-.1-.056-.156-.081l.325.056a1.64 1.64 0 01-.169.025 8.956 8.956 0 004.4 1.163c2.387 0 4.637-.931 6.325-2.619s2.619-3.938 2.619-6.325a9.07 9.07 0 00-1.137-4.35zm-14.8 6.518c-5.369 0-7.769-2.637-7.769-4.619 0-1.012.75-1.725 1.781-1.725 2.3 0 1.7 3.3 5.988 3.3 2.194 0 3.406-1.194 3.406-2.413 0-.731-.363-1.544-1.806-1.9l-4.775-1.194c-3.844-.963-4.544-3.044-4.544-5 0-4.056 3.819-5.581 7.406-5.581 3.306 0 7.2 1.825 7.2 4.263 0 1.044-.906 1.65-1.938 1.65-1.962 0-1.6-2.713-5.55-2.713-1.963 0-3.044.887-3.044 2.156s1.55 1.675 2.894 1.981l3.538.787c3.869.863 4.85 3.125 4.85 5.25 0 3.294-2.531 5.756-7.637 5.756z"/></symbol><symbol viewBox="0 0 32 32" id="sort-amount-asc" xmlns="http://www.w3.org/2000/svg"><path d="M10 24V0H6v24H1l7 7 7-7h-5z"/><path d="M14 18h18v4H14v-4zM14 12h14v4H14v-4zM14 6h10v4H14V6zM14 0h6v4h-6V0z"/></symbol><symbol viewBox="0 0 32 32" id="sort-amount-desc" xmlns="http://www.w3.org/2000/svg"><path d="M10 24V0H6v24H1l7 7 7-7h-5zM14 0h18v4H14V0zM14 6h14v4H14V6zM14 12h10v4H14v-4z"/><path d="M14 18h6v4h-6v-4z"/></symbol><symbol viewBox="0 0 32 32" id="star" xmlns="http://www.w3.org/2000/svg"><path d="M32 12.408l-11.056-1.607L16 .783l-4.944 10.018L0 12.408l8 7.798-1.889 11.011L16 26.018l9.889 5.199L24 20.206l8-7.798z"/></symbol><symbol viewBox="0 0 32 32" id="star-empty" xmlns="http://www.w3.org/2000/svg"><path d="M32 12.408l-11.056-1.607L16 .783l-4.944 10.018L0 12.408l8 7.798-1.889 11.011L16 26.018l9.889 5.199L24 20.206l8-7.798zM16 23.547l-6.983 3.671 1.334-7.776-5.65-5.507 7.808-1.134 3.492-7.075 3.492 7.075 7.807 1.134-5.65 5.507 1.334 7.776-6.983-3.671z"/></symbol><symbol viewBox="0 0 32 32" id="star-half" xmlns="http://www.w3.org/2000/svg"><path d="M32 12.408l-11.056-1.607L16 .783l-4.944 10.018L0 12.408l8 7.798-1.889 11.011L16 26.018l9.889 5.199L24 20.206l8-7.798zM16 23.547l-.029.015L16 5.725l3.492 7.075 7.807 1.134-5.65 5.507 1.334 7.776L16 23.546z"/></symbol><symbol viewBox="0 0 32 32" id="stats-bars" xmlns="http://www.w3.org/2000/svg"><path d="M0 26h32v4H0zm4-8h4v6H4zm6-8h4v14h-4zm6 6h4v8h-4zm6-12h4v20h-4z"/></symbol><symbol viewBox="0 0 32 32" id="stats-bars2" xmlns="http://www.w3.org/2000/svg"><path d="M9 12H3c-.55 0-1 .45-1 1v18c0 .55.45 1 1 1h6c.55 0 1-.45 1-1V13c0-.55-.45-1-1-1zm0 18H3v-8h6v8zM19 8h-6c-.55 0-1 .45-1 1v22c0 .55.45 1 1 1h6c.55 0 1-.45 1-1V9c0-.55-.45-1-1-1zm0 22h-6V20h6v10zM29 4h-6c-.55 0-1 .45-1 1v26c0 .55.45 1 1 1h6c.55 0 1-.45 1-1V5c0-.55-.45-1-1-1zm0 26h-6V18h6v12z"/></symbol><symbol viewBox="0 0 32 32" id="stats-dots" xmlns="http://www.w3.org/2000/svg"><path d="M4 28h28v4H0V0h4zm5-2a3 3 0 11.262-5.988l3.225-5.375a3 3 0 115.026 0l3.225 5.375a3.238 3.238 0 01.46-.005l5.324-9.316a3 3 0 112.28 1.302l-5.324 9.316a3 3 0 11-4.991.053l-3.225-5.375c-.086.007-.174.012-.262.012s-.176-.005-.262-.012l-3.225 5.375A3 3 0 019 25.999z"/></symbol><symbol viewBox="0 0 32 32" id="stop" xmlns="http://www.w3.org/2000/svg"><path d="M4 4h24v24H4z"/></symbol><symbol viewBox="0 0 32 32" id="suitcase" xmlns="http://www.w3.org/2000/svg"><path d="M11.429 6.857h9.143V4.571h-9.143v2.286zm-6.286 0v22.857H4c-2.196 0-4-1.804-4-4V10.857c0-2.196 1.804-4 4-4h1.143zm20 0v22.857H6.857V6.857h2.286V4c0-.946.768-1.714 1.714-1.714h10.286c.946 0 1.714.768 1.714 1.714v2.857h2.286zm6.857 4v14.857c0 2.196-1.804 4-4 4h-1.143V6.857H28c2.196 0 4 1.804 4 4z"/></symbol><symbol viewBox="0 0 32 32" id="table" xmlns="http://www.w3.org/2000/svg"><path d="M0 2v28h32V2H0zm12 18v-6h8v6h-8zm8 2v6h-8v-6h8zm0-16v6h-8V6h8zM10 6v6H2V6h8zm-8 8h8v6H2v-6zm20 0h8v6h-8v-6zm0-2V6h8v6h-8zM2 22h8v6H2v-6zm20 6v-6h8v6h-8z"/></symbol><symbol viewBox="0 0 32 32" id="taxi" xmlns="http://www.w3.org/2000/svg"><path d="M28.5 16q1.453 0 2.477 1.023T32 19.5v6q0 .219-.141.359T31.5 26H30v1q0 1.25-.875 2.125T27 30t-2.125-.875T24 27v-1H8v1q0 1.25-.875 2.125T5 30t-2.125-.875T2 27v-1H.5q-.219 0-.359-.141T0 25.5v-6q0-1.453 1.023-2.477T3.5 16h.438l1.641-6.547q.359-1.469 1.625-2.461T10.001 6h2V2.5q0-.219.141-.359T12.501 2h7q.219 0 .359.141t.141.359V6h2q1.531 0 2.797.992t1.625 2.461L28.064 16h.438zM5 23.5q1.031 0 1.766-.734T7.5 21t-.734-1.766T5 18.5t-1.766.734T2.5 21t.734 1.766T5 23.5zM8.063 16h15.875l-1.391-5.578q-.031-.125-.219-.273T22 10.001H10q-.141 0-.328.148t-.219.273zM27 23.5q1.031 0 1.766-.734T29.5 21t-.734-1.766T27 18.5t-1.766.734T24.5 21t.734 1.766T27 23.5z"/></symbol><symbol viewBox="0 0 32 32" id="ticket" xmlns="http://www.w3.org/2000/svg"><path d="M18 10l4 4-8 8-4-4zm13.298-.703L29.001 7l-1 1a2.829 2.829 0 11-4-4.001l1-1L22.704.702a2.415 2.415 0 00-3.405 0L.704 19.297a2.415 2.415 0 000 3.405l2.297 2.297L4 24a2.828 2.828 0 114 3.999l-1 1 2.297 2.297a2.415 2.415 0 003.405 0l18.595-18.595a2.417 2.417 0 000-3.406zM14 26l-8-8L18 6l8 8-12 12z"/></symbol><symbol viewBox="0 0 26 32" id="trash" xmlns="http://www.w3.org/2000/svg"><path d="M24.889 1.778h-6.222L16.889 0H8L6.222 1.778H0v3.556h24.889V1.778zM1.778 28.445A3.553 3.553 0 005.333 32h14.222a3.553 3.553 0 003.555-3.555V7.112H1.777v21.333z"/></symbol><symbol viewBox="0 0 32 32" id="twitter" xmlns="http://www.w3.org/2000/svg"><path d="M32 7.075a12.941 12.941 0 01-3.769 1.031 6.601 6.601 0 002.887-3.631 13.21 13.21 0 01-4.169 1.594A6.565 6.565 0 0022.155 4a6.563 6.563 0 00-6.563 6.563c0 .512.056 1.012.169 1.494A18.635 18.635 0 012.23 5.195a6.56 6.56 0 00-.887 3.3 6.557 6.557 0 002.919 5.463 6.565 6.565 0 01-2.975-.819v.081a6.565 6.565 0 005.269 6.437 6.574 6.574 0 01-2.968.112 6.588 6.588 0 006.131 4.563 13.17 13.17 0 01-9.725 2.719 18.568 18.568 0 0010.069 2.95c12.075 0 18.681-10.006 18.681-18.681 0-.287-.006-.569-.019-.85A13.216 13.216 0 0032 7.076z"/></symbol><symbol viewBox="0 0 32 32" id="unlocked" xmlns="http://www.w3.org/2000/svg"><path d="M24 2c3.308 0 6 2.692 6 6v6h-4V8c0-1.103-.897-2-2-2h-4c-1.103 0-2 .897-2 2v6h.5c.825 0 1.5.675 1.5 1.5v15c0 .825-.675 1.5-1.5 1.5h-17C.675 32 0 31.325 0 30.5v-15c0-.825.675-1.5 1.5-1.5H14V8c0-3.308 2.692-6 6-6h4z"/></symbol><symbol viewBox="0 0 32 32" id="user" xmlns="http://www.w3.org/2000/svg"><path d="M18 22.082v-1.649c2.203-1.241 4-4.337 4-7.432 0-4.971 0-9-6-9s-6 4.029-6 9c0 3.096 1.797 6.191 4 7.432v1.649C7.216 22.637 2 25.97 2 30h28c0-4.03-5.216-7.364-12-7.918z"/></symbol><symbol viewBox="0 0 32 32" id="user-minus" xmlns="http://www.w3.org/2000/svg"><path d="M12 23c0-4.726 2.996-8.765 7.189-10.319C19.698 11.539 20 10.27 20 9c0-4.971 0-9-6-9S8 4.029 8 9c0 3.096 1.797 6.191 4 7.432v1.649c-6.784.555-12 3.888-12 7.918h12.416a10.962 10.962 0 01-.416-3z"/><path d="M23 14c-4.971 0-9 4.029-9 9s4.029 9 9 9 9-4.029 9-9-4.029-9-9-9zm5 10H18v-2h10v2z"/></symbol><symbol viewBox="0 0 32 32" id="user-plus" xmlns="http://www.w3.org/2000/svg"><path d="M12 23c0-4.726 2.996-8.765 7.189-10.319C19.698 11.539 20 10.27 20 9c0-4.971 0-9-6-9S8 4.029 8 9c0 3.096 1.797 6.191 4 7.432v1.649c-6.784.555-12 3.888-12 7.918h12.416a10.962 10.962 0 01-.416-3z"/><path d="M23 14c-4.971 0-9 4.029-9 9s4.029 9 9 9 9-4.029 9-9-4.029-9-9-9zm5 10h-4v4h-2v-4h-4v-2h4v-4h2v4h4v2z"/></symbol><symbol viewBox="0 0 36 32" id="users" xmlns="http://www.w3.org/2000/svg"><path d="M24 24.082v-1.649c2.203-1.241 4-4.337 4-7.432 0-4.971 0-9-6-9s-6 4.029-6 9c0 3.096 1.797 6.191 4 7.432v1.649C13.216 24.637 8 27.97 8 32h28c0-4.03-5.216-7.364-12-7.918z"/><path d="M10.225 24.854c1.728-1.13 3.877-1.989 6.243-2.513a11.33 11.33 0 01-1.265-1.844c-.95-1.726-1.453-3.627-1.453-5.497 0-2.689 0-5.228.956-7.305.928-2.016 2.598-3.265 4.976-3.734C19.153 1.571 17.746 0 14 0 8 0 8 4.029 8 9c0 3.096 1.797 6.191 4 7.432v1.649c-6.784.555-12 3.888-12 7.918h8.719c.454-.403.956-.787 1.506-1.146z"/></symbol><symbol viewBox="0 0 32 32" id="volume-decrease" xmlns="http://www.w3.org/2000/svg"><path d="M16 14h16v4H16v-4zM13 30a1 1 0 01-.707-.293L4.586 22H1a1 1 0 01-1-1V11a1 1 0 011-1h3.586l7.707-7.707A1 1 0 0114 3v26a1.002 1.002 0 01-1 1z"/></symbol><symbol viewBox="0 0 34 32" id="volume-high" xmlns="http://www.w3.org/2000/svg"><path d="M27.814 28.814a1.5 1.5 0 01-1.061-2.56C29.492 23.515 31 19.874 31 16.001s-1.508-7.514-4.247-10.253a1.5 1.5 0 112.121-2.121C32.179 6.932 34 11.327 34 16.001s-1.82 9.069-5.126 12.374a1.495 1.495 0 01-1.061.439zm-5.329-2.829a1.5 1.5 0 01-1.061-2.56c4.094-4.094 4.094-10.755 0-14.849a1.5 1.5 0 112.121-2.121c2.55 2.55 3.954 5.94 3.954 9.546s-1.404 6.996-3.954 9.546a1.495 1.495 0 01-1.061.439zm-5.328-2.828a1.5 1.5 0 01-1.061-2.56 6.508 6.508 0 000-9.192 1.5 1.5 0 112.121-2.121c3.704 3.704 3.704 9.731 0 13.435a1.495 1.495 0 01-1.061.439zM13 30a1 1 0 01-.707-.293L4.586 22H1a1 1 0 01-1-1V11a1 1 0 011-1h3.586l7.707-7.707A1 1 0 0114 3v26a1.002 1.002 0 01-1 1z"/></symbol><symbol viewBox="0 0 32 32" id="volume-increase" xmlns="http://www.w3.org/2000/svg"><path d="M32 18h-6v6h-4v-6h-6v-4h6V8h4v6h6v4zM13 30a1 1 0 01-.707-.293L4.586 22H1a1 1 0 01-1-1V11a1 1 0 011-1h3.586l7.707-7.707A1 1 0 0114 3v26a1.002 1.002 0 01-1 1z"/></symbol><symbol viewBox="0 0 32 32" id="volume-low" xmlns="http://www.w3.org/2000/svg"><path d="M17.157 23.157a1.5 1.5 0 01-1.061-2.56 6.508 6.508 0 000-9.192 1.5 1.5 0 112.121-2.121c3.704 3.704 3.704 9.731 0 13.435a1.495 1.495 0 01-1.061.439zM13 30a1 1 0 01-.707-.293L4.586 22H1a1 1 0 01-1-1V11a1 1 0 011-1h3.586l7.707-7.707A1 1 0 0114 3v26a1.002 1.002 0 01-1 1z"/></symbol><symbol viewBox="0 0 32 32" id="volume-medium" xmlns="http://www.w3.org/2000/svg"><path d="M22.485 25.985a1.5 1.5 0 01-1.061-2.56c4.094-4.094 4.094-10.755 0-14.849a1.5 1.5 0 112.121-2.121c2.55 2.55 3.954 5.94 3.954 9.546s-1.404 6.996-3.954 9.546a1.495 1.495 0 01-1.061.439zm-5.328-2.828a1.5 1.5 0 01-1.061-2.56 6.508 6.508 0 000-9.192 1.5 1.5 0 112.121-2.121c3.704 3.704 3.704 9.731 0 13.435a1.495 1.495 0 01-1.061.439zM13 30a1 1 0 01-.707-.293L4.586 22H1a1 1 0 01-1-1V11a1 1 0 011-1h3.586l7.707-7.707A1 1 0 0114 3v26a1.002 1.002 0 01-1 1z"/></symbol><symbol viewBox="0 0 32 32" id="volume-mute" xmlns="http://www.w3.org/2000/svg"><path d="M13 30a1 1 0 01-.707-.293L4.586 22H1a1 1 0 01-1-1V11a1 1 0 011-1h3.586l7.707-7.707A1 1 0 0114 3v26a1.002 1.002 0 01-1 1z"/></symbol><symbol viewBox="0 0 32 32" id="volume-mute2" xmlns="http://www.w3.org/2000/svg"><path d="M30 19.348V22h-2.652L24 18.652 20.652 22H18v-2.652L21.348 16 18 12.652V10h2.652L24 13.348 27.348 10H30v2.652L26.652 16 30 19.348zM13 30a1 1 0 01-.707-.293L4.586 22H1a1 1 0 01-1-1V11a1 1 0 011-1h3.586l7.707-7.707A1 1 0 0114 3v26a1.002 1.002 0 01-1 1z"/></symbol><symbol viewBox="0 0 32 32" id="warning" xmlns="http://www.w3.org/2000/svg"><path d="M16 2.899l13.409 26.726H2.59L15.999 2.899zM16 0c-.69 0-1.379.465-1.903 1.395L.438 28.617C-.608 30.477.282 32 2.416 32h27.166c2.134 0 3.025-1.522 1.978-3.383L17.901 1.395C17.378.465 16.688 0 15.998 0z"/><path d="M18 26a2 2 0 11-3.999.001A2 2 0 0118 26zM16 22a2 2 0 01-2-2v-6a2 2 0 114 0v6a2 2 0 01-2 2z"/></symbol><symbol viewBox="0 0 32 32" id="whatsapp" xmlns="http://www.w3.org/2000/svg"><path d="M27.281 4.65C24.287 1.65 20.306 0 16.062 0 7.324 0 .212 7.112.212 15.856c0 2.794.731 5.525 2.119 7.925L.081 32l8.406-2.206a15.858 15.858 0 007.575 1.931h.006c8.738 0 15.856-7.113 15.856-15.856 0-4.238-1.65-8.219-4.644-11.219zm-11.212 24.4a13.17 13.17 0 01-6.713-1.837l-.481-.288-4.987 1.306 1.331-4.863-.313-.5a13.086 13.086 0 01-2.019-7.012c0-7.269 5.912-13.181 13.188-13.181 3.519 0 6.831 1.375 9.319 3.862a13.108 13.108 0 013.856 9.325c-.006 7.275-5.919 13.188-13.181 13.188zm7.225-9.875c-.394-.2-2.344-1.156-2.706-1.288s-.625-.2-.894.2c-.262.394-1.025 1.288-1.256 1.556-.231.262-.462.3-.856.1s-1.675-.619-3.188-1.969c-1.175-1.05-1.975-2.35-2.206-2.744s-.025-.613.175-.806c.181-.175.394-.463.594-.694s.262-.394.394-.662c.131-.262.069-.494-.031-.694s-.894-2.15-1.219-2.944c-.319-.775-.65-.669-.894-.681-.231-.012-.494-.012-.756-.012s-.694.1-1.056.494c-.363.394-1.387 1.356-1.387 3.306s1.419 3.831 1.619 4.1c.2.262 2.794 4.269 6.769 5.981.944.406 1.681.65 2.256.837.95.3 1.813.256 2.494.156.762-.113 2.344-.956 2.675-1.881s.331-1.719.231-1.881c-.094-.175-.356-.275-.756-.475z"/></symbol><symbol viewBox="0 0 40 32" id="wifi" xmlns="http://www.w3.org/2000/svg"><path d="M20 18a11.97 11.97 0 018.482 3.518l-2.828 2.828C24.206 22.898 22.206 22 20 22s-4.206.898-5.654 2.346l-2.828-2.828A11.963 11.963 0 0120 18zM5.858 15.858C9.636 12.08 14.658 10 20 10s10.364 2.08 14.142 5.858l-2.828 2.828C28.292 15.664 24.274 14 20 14s-8.292 1.664-11.314 4.686l-2.828-2.828zM30.9 4.202a27.932 27.932 0 018.9 6l-2.828 2.828C32.438 8.498 26.412 6 20.002 6S7.564 8.496 3.032 13.03L.204 10.202a27.91 27.91 0 018.9-6C12.558 2.742 16.224 2 20.004 2s7.446.74 10.9 2.202zM18 28a2 2 0 114.001.001A2 2 0 0118 28z"/></symbol><symbol viewBox="0 0 32 32" id="youtube" xmlns="http://www.w3.org/2000/svg"><path d="M31.681 9.6s-.313-2.206-1.275-3.175C29.187 5.15 27.825 5.144 27.2 5.069c-4.475-.325-11.194-.325-11.194-.325h-.012s-6.719 0-11.194.325c-.625.075-1.987.081-3.206 1.356C.631 7.394.325 9.6.325 9.6s-.319 2.588-.319 5.181v2.425c0 2.587.319 5.181.319 5.181s.313 2.206 1.269 3.175c1.219 1.275 2.819 1.231 3.531 1.369 2.563.244 10.881.319 10.881.319s6.725-.012 11.2-.331c.625-.075 1.988-.081 3.206-1.356.962-.969 1.275-3.175 1.275-3.175s.319-2.587.319-5.181v-2.425c-.006-2.588-.325-5.181-.325-5.181zM12.694 20.15v-8.994l8.644 4.513-8.644 4.481z"/></symbol><symbol viewBox="0 0 32 32" id="zikomo" xmlns="http://www.w3.org/2000/svg"><path fill="#229f46" d="M.007 31.335l3.092-4.217v-.025H.007L0 26.234h4.537v.606l-3.055 4.183v.025h3.101v.859H.008v-.572zM6.604 26.234v5.673H5.498v-5.673h1.106zM7.871 26.234h1.097v2.609h.027c.144-.219.297-.421.441-.614l1.591-1.995h1.357l-2.085 2.416 2.22 3.258h-1.294l-1.708-2.601-.548.606v1.995H7.872v-5.673zM18.242 29.012c0 1.902-1.231 2.988-2.894 2.988s-2.795-1.229-2.795-2.887c0-1.751 1.177-2.98 2.885-2.98s2.804 1.254 2.804 2.878zm-4.521.075c0 1.162.62 2.079 1.681 2.079s1.671-.934 1.671-2.121c0-1.069-.566-2.079-1.671-2.079s-1.681.951-1.681 2.121zM24.308 29.593c-.036-.732-.081-1.616-.072-2.382h-.027c-.198.69-.449 1.456-.719 2.172l-.89 2.458h-.845l-.809-2.424a26.526 26.526 0 01-.611-2.205h-.018c-.027.741-.063 1.641-.108 2.415l-.135 2.281H19.04l.404-5.673H20.9l.791 2.281c.215.665.404 1.338.557 1.97h.027c.162-.614.369-1.313.602-1.978l.836-2.273h1.438l.35 5.673h-1.078l-.117-2.315zM32 29.012C32 30.914 30.769 32 29.106 32s-2.795-1.229-2.795-2.887c0-1.751 1.177-2.98 2.885-2.98S32 27.387 32 29.011zm-4.521.075c0 1.162.62 2.079 1.681 2.079s1.671-.934 1.671-2.121c0-1.069-.566-2.079-1.671-2.079s-1.681.951-1.681 2.121zM16 0v2.227L5.006 18.968h9.397V22.4H0v-2.21L11.01 3.432H0V0h16z"/><path fill="#3b403c" d="M32 0v3.432H20.99L32 20.19v2.21H17.597v-3.432h9.397L16 2.227V0h16z"/></symbol></svg>